  0
SECTION
  2
HEADER
  9
$ACADVER
  1
AC1024
  9
$ACADMAINTVER
 70
6
  9
$DWGCODEPAGE
  3
ANSI_1252
  9
$LASTSAVEDBY
  1
ezdxf
  9
$INSBASE
 10
0.0
 20
0.0
 30
0.0
  9
$EXTMIN
 10
1e+20
 20
1e+20
 30
1e+20
  9
$EXTMAX
 10
-1e+20
 20
-1e+20
 30
-1e+20
  9
$LIMMIN
 10
0.0
 20
0.0
  9
$LIMMAX
 10
420.0
 20
297.0
  9
$ORTHOMODE
 70
0
  9
$REGENMODE
 70
1
  9
$FILLMODE
 70
1
  9
$QTEXTMODE
 70
0
  9
$MIRRTEXT
 70
1
  9
$LTSCALE
 40
1.0
  9
$ATTMODE
 70
1
  9
$TEXTSIZE
 40
2.5
  9
$TRACEWID
 40
1.0
  9
$TEXTSTYLE
  7
Standard
  9
$CLAYER
  8
0
  9
$CELTYPE
  6
ByLayer
  9
$CECOLOR
 62
256
  9
$CELTSCALE
 40
1.0
  9
$DISPSILH
 70
0
  9
$DIMSCALE
 40
1.0
  9
$DIMASZ
 40
2.5
  9
$DIMEXO
 40
0.625
  9
$DIMDLI
 40
3.75
  9
$DIMRND
 40
0.0
  9
$DIMDLE
 40
0.0
  9
$DIMEXE
 40
1.25
  9
$DIMTP
 40
0.0
  9
$DIMTM
 40
0.0
  9
$DIMTXT
 40
2.5
  9
$DIMCEN
 40
2.5
  9
$DIMTSZ
 40
0.0
  9
$DIMTOL
 70
0
  9
$DIMLIM
 70
0
  9
$DIMTIH
 70
0
  9
$DIMTOH
 70
0
  9
$DIMSE1
 70
0
  9
$DIMSE2
 70
0
  9
$DIMTAD
 70
1
  9
$DIMZIN
 70
8
  9
$DIMBLK
  1

  9
$DIMASO
 70
1
  9
$DIMSHO
 70
1
  9
$DIMPOST
  1

  9
$DIMAPOST
  1

  9
$DIMALT
 70
0
  9
$DIMALTD
 70
3
  9
$DIMALTF
 40
0.03937007874
  9
$DIMLFAC
 40
1.0
  9
$DIMTOFL
 70
1
  9
$DIMTVP
 40
0.0
  9
$DIMTIX
 70
0
  9
$DIMSOXD
 70
0
  9
$DIMSAH
 70
0
  9
$DIMBLK1
  1

  9
$DIMBLK2
  1

  9
$DIMSTYLE
  2
ISO-25
  9
$DIMCLRD
 70
0
  9
$DIMCLRE
 70
0
  9
$DIMCLRT
 70
0
  9
$DIMTFAC
 40
1.0
  9
$DIMGAP
 40
0.625
  9
$DIMJUST
 70
0
  9
$DIMSD1
 70
0
  9
$DIMSD2
 70
0
  9
$DIMTOLJ
 70
0
  9
$DIMTZIN
 70
8
  9
$DIMALTZ
 70
0
  9
$DIMALTTZ
 70
0
  9
$DIMUPT
 70
0
  9
$DIMDEC
 70
2
  9
$DIMTDEC
 70
2
  9
$DIMALTU
 70
2
  9
$DIMALTTD
 70
3
  9
$DIMTXSTY
  7
Standard
  9
$DIMAUNIT
 70
0
  9
$DIMADEC
 70
0
  9
$DIMALTRND
 40
0.0
  9
$DIMAZIN
 70
0
  9
$DIMDSEP
 70
44
  9
$DIMATFIT
 70
3
  9
$DIMFRAC
 70
0
  9
$DIMLDRBLK
  1

  9
$DIMLUNIT
 70
2
  9
$DIMLWD
 70
-2
  9
$DIMLWE
 70
-2
  9
$DIMTMOVE
 70
0
  9
$DIMFXL
 40
1.0
  9
$DIMFXLON
 70
0
  9
$DIMJOGANG
 40
0.785398163397
  9
$DIMTFILL
 70
0
  9
$DIMTFILLCLR
 70
0
  9
$DIMARCSYM
 70
0
  9
$DIMLTYPE
  6

  9
$DIMLTEX1
  6

  9
$DIMLTEX2
  6

  9
$DIMTXTDIRECTION
 70
0
  9
$LUNITS
 70
2
  9
$LUPREC
 70
4
  9
$SKETCHINC
 40
1.0
  9
$FILLETRAD
 40
10.0
  9
$AUNITS
 70
0
  9
$AUPREC
 70
2
  9
$MENU
  1
.
  9
$ELEVATION
 40
0.0
  9
$PELEVATION
 40
0.0
  9
$THICKNESS
 40
0.0
  9
$LIMCHECK
 70
0
  9
$CHAMFERA
 40
0.0
  9
$CHAMFERB
 40
0.0
  9
$CHAMFERC
 40
0.0
  9
$CHAMFERD
 40
0.0
  9
$SKPOLY
 70
0
  9
$TDCREATE
 40
2460648.548935185
  9
$TDUCREATE
 40
2458532.153996898
  9
$TDUPDATE
 40
2460648.548935185
  9
$TDUUPDATE
 40
2458532.1544311
  9
$TDINDWG
 40
0.0
  9
$TDUSRTIMER
 40
0.0
  9
$USRTIMER
 70
1
  9
$ANGBASE
 50
0.0
  9
$ANGDIR
 70
0
  9
$PDMODE
 70
0
  9
$PDSIZE
 40
0.0
  9
$PLINEWID
 40
0.0
  9
$SPLFRAME
 70
0
  9
$SPLINETYPE
 70
6
  9
$SPLINESEGS
 70
8
  9
$HANDSEED
  5
5A
  9
$SURFTAB1
 70
6
  9
$SURFTAB2
 70
6
  9
$SURFTYPE
 70
6
  9
$SURFU
 70
6
  9
$SURFV
 70
6
  9
$UCSBASE
  2

  9
$UCSNAME
  2

  9
$UCSORG
 10
0.0
 20
0.0
 30
0.0
  9
$UCSXDIR
 10
1.0
 20
0.0
 30
0.0
  9
$UCSYDIR
 10
0.0
 20
1.0
 30
0.0
  9
$UCSORTHOREF
  2

  9
$UCSORTHOVIEW
 70
0
  9
$UCSORGTOP
 10
0.0
 20
0.0
 30
0.0
  9
$UCSORGBOTTOM
 10
0.0
 20
0.0
 30
0.0
  9
$UCSORGLEFT
 10
0.0
 20
0.0
 30
0.0
  9
$UCSORGRIGHT
 10
0.0
 20
0.0
 30
0.0
  9
$UCSORGFRONT
 10
0.0
 20
0.0
 30
0.0
  9
$UCSORGBACK
 10
0.0
 20
0.0
 30
0.0
  9
$PUCSBASE
  2

  9
$PUCSNAME
  2

  9
$PUCSORG
 10
0.0
 20
0.0
 30
0.0
  9
$PUCSXDIR
 10
1.0
 20
0.0
 30
0.0
  9
$PUCSYDIR
 10
0.0
 20
1.0
 30
0.0
  9
$PUCSORTHOREF
  2

  9
$PUCSORTHOVIEW
 70
0
  9
$PUCSORGTOP
 10
0.0
 20
0.0
 30
0.0
  9
$PUCSORGBOTTOM
 10
0.0
 20
0.0
 30
0.0
  9
$PUCSORGLEFT
 10
0.0
 20
0.0
 30
0.0
  9
$PUCSORGRIGHT
 10
0.0
 20
0.0
 30
0.0
  9
$PUCSORGFRONT
 10
0.0
 20
0.0
 30
0.0
  9
$PUCSORGBACK
 10
0.0
 20
0.0
 30
0.0
  9
$USERI1
 70
0
  9
$USERI2
 70
0
  9
$USERI3
 70
0
  9
$USERI4
 70
0
  9
$USERI5
 70
0
  9
$USERR1
 40
0.0
  9
$USERR2
 40
0.0
  9
$USERR3
 40
0.0
  9
$USERR4
 40
0.0
  9
$USERR5
 40
0.0
  9
$WORLDVIEW
 70
1
  9
$SHADEDGE
 70
3
  9
$SHADEDIF
 70
70
  9
$TILEMODE
 70
1
  9
$MAXACTVP
 70
64
  9
$PINSBASE
 10
0.0
 20
0.0
 30
0.0
  9
$PLIMCHECK
 70
0
  9
$PEXTMIN
 10
1e+20
 20
1e+20
 30
1e+20
  9
$PEXTMAX
 10
-1e+20
 20
-1e+20
 30
-1e+20
  9
$PLIMMIN
 10
0.0
 20
0.0
  9
$PLIMMAX
 10
420.0
 20
297.0
  9
$UNITMODE
 70
0
  9
$VISRETAIN
 70
1
  9
$PLINEGEN
 70
0
  9
$PSLTSCALE
 70
1
  9
$TREEDEPTH
 70
3020
  9
$CMLSTYLE
  2
Standard
  9
$CMLJUST
 70
0
  9
$CMLSCALE
 40
20.0
  9
$PROXYGRAPHICS
 70
1
  9
$MEASUREMENT
 70
1
  9
$CELWEIGHT
370
-1
  9
$ENDCAPS
280
0
  9
$JOINSTYLE
280
0
  9
$LWDISPLAY
290
0
  9
$INSUNITS
 70
6
  9
$HYPERLINKBASE
  1

  9
$STYLESHEET
  1

  9
$XEDIT
290
1
  9
$CEPSNTYPE
380
0
  9
$PSTYLEMODE
290
1
  9
$FINGERPRINTGUID
  2
{5F1F80E0-4C5F-4F5D-8034-9082266F89DD}
  9
$VERSIONGUID
  2
{8417D057-F328-4461-9C62-3A2CB3647A8A}
  9
$EXTNAMES
290
1
  9
$PSVPSCALE
 40
0.0
  9
$OLESTARTUP
290
0
  9
$SORTENTS
280
127
  9
$INDEXCTL
280
0
  9
$HIDETEXT
280
1
  9
$XCLIPFRAME
280
1
  9
$HALOGAP
280
0
  9
$OBSCOLOR
 70
257
  9
$OBSLTYPE
280
0
  9
$INTERSECTIONDISPLAY
280
0
  9
$INTERSECTIONCOLOR
 70
257
  9
$DIMASSOC
280
2
  9
$PROJECTNAME
  1

  9
$CAMERADISPLAY
290
0
  9
$LENSLENGTH
 40
50.0
  9
$CAMERAHEIGHT
 40
0.0
  9
$STEPSPERSEC
 40
24.0
  9
$STEPSIZE
 40
100.0
  9
$3DDWFPREC
 40
2.0
  9
$PSOLWIDTH
 40
0.005
  9
$PSOLHEIGHT
 40
0.08
  9
$LOFTANG1
 40
1.570796326795
  9
$LOFTANG2
 40
1.570796326795
  9
$LOFTMAG1
 40
0.0
  9
$LOFTMAG2
 40
0.0
  9
$LOFTPARAM
 70
7
  9
$LOFTNORMALS
280
1
  9
$LATITUDE
 40
37.795
  9
$LONGITUDE
 40
-122.394
  9
$NORTHDIRECTION
 40
0.0
  9
$TIMEZONE
 70
-8000
  9
$LIGHTGLYPHDISPLAY
280
1
  9
$TILEMODELIGHTSYNCH
280
1
  9
$CMATERIAL
347
20
  9
$SOLIDHIST
280
0
  9
$SHOWHIST
280
1
  9
$DWFFRAME
280
2
  9
$DGNFRAME
280
2
  9
$REALWORLDSCALE
290
1
  9
$INTERFERECOLOR
 62
256
  9
$CSHADOW
280
0
  9
$SHADOWPLANELOCATION
 40
0.0
  0
ENDSEC
  0
SECTION
  2
CLASSES
  0
CLASS
  1
ACDBDICTIONARYWDFLT
  2
AcDbDictionaryWithDefault
  3
ObjectDBX Classes
 90
0
 91
0
280
0
281
0
  0
CLASS
  1
SUN
  2
AcDbSun
  3
SCENEOE
 90
1153
 91
0
280
0
281
0
  0
CLASS
  1
VISUALSTYLE
  2
AcDbVisualStyle
  3
ObjectDBX Classes
 90
4095
 91
0
280
0
281
0
  0
CLASS
  1
MATERIAL
  2
AcDbMaterial
  3
ObjectDBX Classes
 90
1153
 91
0
280
0
281
0
  0
CLASS
  1
SCALE
  2
AcDbScale
  3
ObjectDBX Classes
 90
1153
 91
0
280
0
281
0
  0
CLASS
  1
TABLESTYLE
  2
AcDbTableStyle
  3
ObjectDBX Classes
 90
4095
 91
0
280
0
281
0
  0
CLASS
  1
MLEADERSTYLE
  2
AcDbMLeaderStyle
  3
ACDB_MLEADERSTYLE_CLASS
 90
4095
 91
0
280
0
281
0
  0
CLASS
  1
DICTIONARYVAR
  2
AcDbDictionaryVar
  3
ObjectDBX Classes
 90
0
 91
0
280
0
281
0
  0
CLASS
  1
CELLSTYLEMAP
  2
AcDbCellStyleMap
  3
ObjectDBX Classes
 90
1152
 91
0
280
0
281
0
  0
CLASS
  1
MENTALRAYRENDERSETTINGS
  2
AcDbMentalRayRenderSettings
  3
SCENEOE
 90
1024
 91
0
280
0
281
0
  0
CLASS
  1
ACDBDETAILVIEWSTYLE
  2
AcDbDetailViewStyle
  3
ObjectDBX Classes
 90
1025
 91
0
280
0
281
0
  0
CLASS
  1
ACDBSECTIONVIEWSTYLE
  2
AcDbSectionViewStyle
  3
ObjectDBX Classes
 90
1025
 91
0
280
0
281
0
  0
CLASS
  1
RASTERVARIABLES
  2
AcDbRasterVariables
  3
ISM
 90
0
 91
0
280
0
281
0
  0
CLASS
  1
ACDBPLACEHOLDER
  2
AcDbPlaceHolder
  3
ObjectDBX Classes
 90
0
 91
0
280
0
281
0
  0
CLASS
  1
LAYOUT
  2
AcDbLayout
  3
ObjectDBX Classes
 90
0
 91
0
280
0
281
0
  0
ENDSEC
  0
SECTION
  2
TABLES
  0
TABLE
  2
VPORT
  5
8
330
0
100
AcDbSymbolTable
 70
1
  0
VPORT
  5
23
330
8
100
AcDbSymbolTableRecord
100
AcDbViewportTableRecord
  2
*Active
 70
0
 10
0.0
 20
0.0
 11
1.0
 21
1.0
 12
0.0
 22
0.0
 13
0.0
 23
0.0
 14
0.5
 24
0.5
 15
0.5
 25
0.5
 16
0.0
 26
0.0
 36
1.0
 17
0.0
 27
0.0
 37
0.0
 40
1000.0
 41
1.34
 42
50.0
 43
0.0
 44
0.0
 50
0.0
 51
0.0
 71
0
 72
1000
 73
1
 74
3
 75
0
 76
0
 77
0
 78
0
281
0
 65
0
146
0.0
  0
ENDTAB
  0
TABLE
  2
LTYPE
  5
2
330
0
100
AcDbSymbolTable
 70
3
  0
LTYPE
  5
24
330
2
100
AcDbSymbolTableRecord
100
AcDbLinetypeTableRecord
  2
ByBlock
 70
0
  3

 72
65
 73
0
 40
0.0
  0
LTYPE
  5
25
330
2
100
AcDbSymbolTableRecord
100
AcDbLinetypeTableRecord
  2
ByLayer
 70
0
  3

 72
65
 73
0
 40
0.0
  0
LTYPE
  5
26
330
2
100
AcDbSymbolTableRecord
100
AcDbLinetypeTableRecord
  2
Continuous
 70
0
  3

 72
65
 73
0
 40
0.0
  0
ENDTAB
  0
TABLE
  2
LAYER
  5
1
330
0
100
AcDbSymbolTable
 70
2
  0
LAYER
  5
27
330
1
100
AcDbSymbolTableRecord
100
AcDbLayerTableRecord
  2
0
 70
0
 62
7
  6
Continuous
370
-3
390
13
347
21
  0
LAYER
  5
28
330
1
100
AcDbSymbolTableRecord
100
AcDbLayerTableRecord
  2
Defpoints
 70
0
 62
7
  6
Continuous
290
0
370
-3
390
13
347
21
  0
ENDTAB
  0
TABLE
  2
STYLE
  5
5
330
0
100
AcDbSymbolTable
 70
1
  0
STYLE
  5
29
330
5
100
AcDbSymbolTableRecord
100
AcDbTextStyleTableRecord
  2
Standard
 70
0
 40
0.0
 41
1.0
 50
0.0
 71
0
 42
2.5
  3
txt
  4

  0
ENDTAB
  0
TABLE
  2
VIEW
  5
7
330
0
100
AcDbSymbolTable
 70
0
  0
ENDTAB
  0
TABLE
  2
UCS
  5
6
330
0
100
AcDbSymbolTable
 70
0
  0
ENDTAB
  0
TABLE
  2
APPID
  5
3
330
0
100
AcDbSymbolTable
 70
3
  0
APPID
  5
2A
330
3
100
AcDbSymbolTableRecord
100
AcDbRegAppTableRecord
  2
ACAD
 70
0
  0
APPID
  5
57
330
3
100
AcDbSymbolTableRecord
100
AcDbRegAppTableRecord
  2
HATCHBACKGROUNDCOLOR
 70
0
  0
APPID
  5
58
330
3
100
AcDbSymbolTableRecord
100
AcDbRegAppTableRecord
  2
EZDXF
 70
0
  0
ENDTAB
  0
TABLE
  2
DIMSTYLE
  5
4
330
0
100
AcDbSymbolTable
 70
1
100
AcDbDimStyleTable
  0
DIMSTYLE
105
2B
330
4
100
AcDbSymbolTableRecord
100
AcDbDimStyleTableRecord
  2
Standard
 70
0
 40
1.0
 41
2.5
 42
0.625
 43
3.75
 44
1.25
 45
0.0
 46
0.0
 47
0.0
 48
0.0
 49
2.5
140
2.5
141
2.5
142
0.0
143
0.03937007874
144
1.0
145
0.0
146
1.0
147
0.625
148
0.0
 69
0
 70
0
 71
0
 72
0
 73
0
 74
0
 75
0
 76
0
 77
1
 78
8
 79
3
170
0
171
3
172
1
173
0
174
0
175
0
176
0
177
0
178
0
179
2
271
2
272
2
273
2
274
3
275
0
276
0
277
2
278
44
279
0
280
0
281
0
282
0
283
0
284
8
285
0
286
0
288
0
289
3
290
0
371
-2
372
-2
  0
ENDTAB
  0
TABLE
  2
BLOCK_RECORD
  5
9
330
0
100
AcDbSymbolTable
 70
2
  0
BLOCK_RECORD
  5
17
330
9
100
AcDbSymbolTableRecord
100
AcDbBlockTableRecord
  2
*Model_Space
340
1A
 70
0
280
1
281
0
  0
BLOCK_RECORD
  5
1B
330
9
100
AcDbSymbolTableRecord
100
AcDbBlockTableRecord
  2
*Paper_Space
340
1E
 70
0
280
1
281
0
  0
ENDTAB
  0
ENDSEC
  0
SECTION
  2
BLOCKS
  0
BLOCK
  5
18
330
17
100
AcDbEntity
  8
0
100
AcDbBlockBegin
  2
*Model_Space
 70
0
 10
0.0
 20
0.0
 30
0.0
  3
*Model_Space
  1

  0
ENDBLK
  5
19
330
17
100
AcDbEntity
  8
0
100
AcDbBlockEnd
  0
BLOCK
  5
1C
330
1B
100
AcDbEntity
  8
0
100
AcDbBlockBegin
  2
*Paper_Space
 70
0
 10
0.0
 20
0.0
 30
0.0
  3
*Paper_Space
  1

  0
ENDBLK
  5
1D
330
1B
100
AcDbEntity
  8
0
100
AcDbBlockEnd
  0
ENDSEC
  0
SECTION
  2
ENTITIES
  0
LWPOLYLINE
  5
2F
330
17
100
AcDbEntity
  8
0
100
AcDbPolyline
 90
5
 70
0
 10
358.2926828388588
 20
-88.3078528040323
 10
181.67697723079414
 20
-88.3078528040323
 10
181.67697723079414
 20
818.3078528040322
 10
358.2926828388588
 20
818.3078528040322
 10
358.2926828388588
 20
-88.3078528040323
  0
LWPOLYLINE
  5
30
330
17
100
AcDbEntity
  8
0
100
AcDbPolyline
 90
17
 70
0
 10
194.94153861573918
 20
-73.69030116872179
 10
193.98483003482644
 20
-73.5
 10
193.0281214539137
 20
-73.69030116872179
 10
192.21706308186006
 20
-74.23223304703363
 10
191.67513120354823
 20
-75.04329141908728
 10
191.48483003482644
 20
-76.0
 10
191.67513120354823
 20
-76.95670858091272
 10
192.2170630818601
 20
-77.76776695296637
 10
193.0281214539137
 20
-78.30969883127821
 10
193.98483003482644
 20
-78.5
 10
194.94153861573918
 20
-78.30969883127821
 10
195.7525969877928
 20
-77.76776695296637
 10
196.29452886610466
 20
-76.95670858091272
 10
196.48483003482644
 20
-76.0
 10
196.29452886610466
 20
-75.04329141908727
 10
195.7525969877928
 20
-74.23223304703363
 10
194.94153861573918
 20
-73.69030116872179
  0
LWPOLYLINE
  5
31
330
17
100
AcDbEntity
  8
0
100
AcDbPolyline
 90
17
 70
0
 10
346.9415386157392
 20
-73.69030116872179
 10
345.9848300348265
 20
-73.5
 10
345.02812145391374
 20
-73.69030116872179
 10
344.2170630818601
 20
-74.23223304703363
 10
343.67513120354823
 20
-75.04329141908728
 10
343.4848300348265
 20
-76.0
 10
343.67513120354823
 20
-76.95670858091272
 10
344.2170630818601
 20
-77.76776695296637
 10
345.02812145391374
 20
-78.30969883127821
 10
345.9848300348265
 20
-78.5
 10
346.9415386157392
 20
-78.30969883127821
 10
347.75259698779286
 20
-77.76776695296637
 10
348.2945288661047
 20
-76.95670858091272
 10
348.4848300348265
 20
-76.0
 10
348.2945288661047
 20
-75.04329141908727
 10
347.75259698779286
 20
-74.23223304703363
 10
346.9415386157392
 20
-73.69030116872179
  0
LWPOLYLINE
  5
32
330
17
100
AcDbEntity
  8
0
100
AcDbPolyline
 90
17
 70
0
 10
194.94153861573918
 20
808.3096988312782
 10
193.98483003482644
 20
808.5
 10
193.0281214539137
 20
808.3096988312782
 10
192.21706308186006
 20
807.7677669529663
 10
191.67513120354823
 20
806.9567085809127
 10
191.48483003482644
 20
806.0
 10
191.67513120354823
 20
805.0432914190873
 10
192.2170630818601
 20
804.2322330470337
 10
193.0281214539137
 20
803.6903011687218
 10
193.98483003482644
 20
803.5
 10
194.94153861573918
 20
803.6903011687218
 10
195.7525969877928
 20
804.2322330470337
 10
196.29452886610466
 20
805.0432914190873
 10
196.48483003482644
 20
806.0
 10
196.29452886610466
 20
806.9567085809127
 10
195.7525969877928
 20
807.7677669529663
 10
194.94153861573918
 20
808.3096988312782
  0
LWPOLYLINE
  5
33
330
17
100
AcDbEntity
  8
0
100
AcDbPolyline
 90
17
 70
0
 10
346.9415386157392
 20
808.3096988312782
 10
345.9848300348265
 20
808.5
 10
345.02812145391374
 20
808.3096988312782
 10
344.2170630818601
 20
807.7677669529663
 10
343.67513120354823
 20
806.9567085809127
 10
343.4848300348265
 20
806.0
 10
343.67513120354823
 20
805.0432914190873
 10
344.2170630818601
 20
804.2322330470337
 10
345.02812145391374
 20
803.6903011687218
 10
345.9848300348265
 20
803.5
 10
346.9415386157392
 20
803.6903011687218
 10
347.75259698779286
 20
804.2322330470337
 10
348.2945288661047
 20
805.0432914190873
 10
348.4848300348265
 20
806.0
 10
348.2945288661047
 20
806.9567085809127
 10
347.75259698779286
 20
807.7677669529663
 10
346.9415386157392
 20
808.3096988312782
  0
LWPOLYLINE
  5
34
330
17
100
AcDbEntity
  8
0
100
AcDbPolyline
 90
11
 70
0
 10
205.10025972232646
 20
-75.90703125
 10
204.62682222232644
 20
-75.90703125
 10
205.61119722232644
 20
-78.5046875
 10
205.35872847232645
 20
-79.03078125
 10
204.91691597232645
 20
-79.1109375
 10
205.06071284732644
 20
-79.5474921875
 10
205.72154097232644
 20
-79.21453125
 10
207.00260347232646
 20
-75.90703125
 10
206.56275972232643
 20
-75.90703125
 10
205.82838472232643
 20
-78.009375
 10
205.10025972232646
 20
-75.90703125
  0
LWPOLYLINE
  5
35
330
17
100
AcDbEntity
  8
0
100
AcDbPolyline
 90
15
 70
0
 10
204.14391206607644
 20
-76.3196015625
 10
203.64262300357643
 20
-75.8984375
 10
202.60309175357645
 20
-75.940625
 10
202.02184175357644
 20
-76.646875
 10
203.25434175357645
 20
-76.2184375
 10
203.67309175357644
 20
-76.41134375
 10
203.75074800357643
 20
-76.8546875
 10
202.26012300357644
 20
-77.215625
 10
201.98281050357645
 20
-78.05778125
 10
202.52252925357644
 20
-78.52521875
 10
203.50077925357644
 20
-78.3853125
 10
203.78746675357644
 20
-78.18046875
 10
203.87496675357644
 20
-78.5
 10
204.33434175357644
 20
-78.5
 10
204.14391206607644
 20
-76.3196015625
  0
LWPOLYLINE
  5
36
330
17
100
AcDbEntity
  8
0
100
AcDbPolyline
 90
14
 70
0
 10
208.77096284732644
 20
-78.134859375
 10
208.16940034732644
 20
-78.140234375
 10
207.69062690982645
 20
-77.39909375
 10
209.61744722232643
 20
-77.315625
 10
209.29010347232645
 20
-76.20234375
 10
208.54225972232643
 20
-75.8519765625
 10
207.63537690982645
 20
-76.1414296875
 10
207.23253315982646
 20
-77.09778125
 10
207.56275972232643
 20
-78.20859375
 10
208.55380659732646
 20
-78.5563984375
 10
209.45201753482644
 20
-78.0744140625
 10
209.60494722232644
 20
-77.72109375
 10
209.15104097232646
 20
-77.66484375
 10
208.77096284732644
 20
-78.134859375
  0
LWPOLYLINE
  5
37
330
17
100
AcDbEntity
  8
0
100
AcDbPolyline
 90
10
 70
0
 10
210.71399019107645
 20
-76.5173125
 10
211.40914644107644
 20
-76.39765625
 10
211.56070894107646
 20
-75.98984375
 10
210.99014644107643
 20
-75.8625625
 10
210.60711519107645
 20
-76.19721875
 10
210.54742769107645
 20
-75.90703125
 10
210.15211519107643
 20
-75.90703125
 10
210.15211519107643
 20
-78.5
 10
210.59117769107644
 20
-78.5
 10
210.71399019107645
 20
-76.5173125
  0
LWPOLYLINE
  5
38
330
17
100
AcDbEntity
  8
0
100
AcDbPolyline
 90
9
 70
0
 10
214.57587690982643
 20
-74.94815625
 10
213.83459565982645
 20
-74.98190625
 10
213.13609565982645
 20
-76.06240625
 10
213.44303315982646
 20
-78.18984375
 10
214.05753315982645
 20
-78.54609375
 10
214.85354097232644
 20
-78.390078125
 10
215.41104878482645
 20
-77.0911015625
 10
215.09055659732644
 20
-75.3143125
 10
214.57587690982643
 20
-74.94815625
  0
LWPOLYLINE
  5
39
330
17
100
AcDbEntity
  8
0
100
AcDbPolyline
 90
7
 70
0
 10
201.58717378482643
 20
-78.5
 10
201.58717378482643
 20
-78.07734375
 10
199.82467378482644
 20
-78.07734375
 10
199.82467378482644
 20
-74.92109375
 10
199.35123628482646
 20
-74.92109375
 10
199.35123628482646
 20
-78.5
 10
201.58717378482643
 20
-78.5
  0
LWPOLYLINE
  5
3A
330
17
100
AcDbEntity
  8
0
100
AcDbPolyline
 90
19
 70
0
 10
330.3314135740356
 20
100.80010314519127
 10
330.0
 20
100.86602540378443
 10
210.0
 20
100.86602540378443
 10
209.6685864259644
 20
100.80010314519127
 10
209.3876275643042
 20
100.61237243569579
 10
209.19989685480874
 20
100.3314135740356
 10
209.13397459621555
 20
100.0
 10
209.19989685480874
 20
99.6685864259644
 10
209.3876275643042
 20
99.38762756430421
 10
209.6685864259644
 20
99.19989685480873
 10
210.0
 20
99.13397459621557
 10
330.0
 20
99.13397459621557
 10
330.3314135740356
 20
99.19989685480873
 10
330.6123724356958
 20
99.38762756430421
 10
330.80010314519126
 20
99.6685864259644
 10
330.8660254037844
 20
100.0
 10
330.80010314519126
 20
100.3314135740356
 10
330.6123724356958
 20
100.61237243569579
 10
330.3314135740356
 20
100.80010314519127
  0
LWPOLYLINE
  5
3B
330
17
100
AcDbEntity
  8
0
100
AcDbPolyline
 90
19
 70
0
 10
330.3314135740356
 20
150.80010314519126
 10
330.0
 20
150.86602540378445
 10
210.0
 20
150.86602540378445
 10
209.6685864259644
 20
150.80010314519126
 10
209.3876275643042
 20
150.6123724356958
 10
209.19989685480874
 20
150.3314135740356
 10
209.13397459621555
 20
150.0
 10
209.19989685480874
 20
149.6685864259644
 10
209.3876275643042
 20
149.3876275643042
 10
209.6685864259644
 20
149.19989685480874
 10
210.0
 20
149.13397459621555
 10
330.0
 20
149.13397459621555
 10
330.3314135740356
 20
149.19989685480874
 10
330.6123724356958
 20
149.3876275643042
 10
330.80010314519126
 20
149.6685864259644
 10
330.8660254037844
 20
150.0
 10
330.80010314519126
 20
150.3314135740356
 10
330.6123724356958
 20
150.6123724356958
 10
330.3314135740356
 20
150.80010314519126
  0
LWPOLYLINE
  5
3C
330
17
100
AcDbEntity
  8
0
100
AcDbPolyline
 90
19
 70
0
 10
330.3314135740356
 20
250.80010314519126
 10
330.0
 20
250.86602540378445
 10
210.0
 20
250.86602540378445
 10
209.6685864259644
 20
250.80010314519126
 10
209.3876275643042
 20
250.6123724356958
 10
209.19989685480874
 20
250.3314135740356
 10
209.13397459621555
 20
250.0
 10
209.19989685480874
 20
249.6685864259644
 10
209.3876275643042
 20
249.3876275643042
 10
209.6685864259644
 20
249.19989685480874
 10
210.0
 20
249.13397459621555
 10
330.0
 20
249.13397459621555
 10
330.3314135740356
 20
249.19989685480874
 10
330.6123724356958
 20
249.3876275643042
 10
330.80010314519126
 20
249.6685864259644
 10
330.8660254037844
 20
250.0
 10
330.80010314519126
 20
250.3314135740356
 10
330.6123724356958
 20
250.6123724356958
 10
330.3314135740356
 20
250.80010314519126
  0
LWPOLYLINE
  5
3D
330
17
100
AcDbEntity
  8
0
100
AcDbPolyline
 90
19
 70
0
 10
330.3314135740356
 20
370.80010314519126
 10
330.0
 20
370.8660254037844
 10
210.0
 20
370.8660254037844
 10
209.6685864259644
 20
370.80010314519126
 10
209.3876275643042
 20
370.6123724356958
 10
209.19989685480874
 20
370.3314135740356
 10
209.13397459621555
 20
370.0
 10
209.19989685480874
 20
369.6685864259644
 10
209.3876275643042
 20
369.3876275643042
 10
209.6685864259644
 20
369.19989685480874
 10
210.0
 20
369.1339745962156
 10
330.0
 20
369.1339745962156
 10
330.3314135740356
 20
369.19989685480874
 10
330.6123724356958
 20
369.3876275643042
 10
330.80010314519126
 20
369.6685864259644
 10
330.8660254037844
 20
370.0
 10
330.80010314519126
 20
370.3314135740356
 10
330.6123724356958
 20
370.6123724356958
 10
330.3314135740356
 20
370.80010314519126
  0
LWPOLYLINE
  5
3E
330
17
100
AcDbEntity
  8
0
100
AcDbPolyline
 90
19
 70
0
 10
330.3314135740356
 20
470.80010314519126
 10
330.0
 20
470.8660254037844
 10
210.0
 20
470.8660254037844
 10
209.6685864259644
 20
470.80010314519126
 10
209.3876275643042
 20
470.6123724356958
 10
209.19989685480874
 20
470.3314135740356
 10
209.13397459621555
 20
470.0
 10
209.19989685480874
 20
469.6685864259644
 10
209.3876275643042
 20
469.3876275643042
 10
209.6685864259644
 20
469.19989685480874
 10
210.0
 20
469.1339745962156
 10
330.0
 20
469.1339745962156
 10
330.3314135740356
 20
469.19989685480874
 10
330.6123724356958
 20
469.3876275643042
 10
330.80010314519126
 20
469.6685864259644
 10
330.8660254037844
 20
470.0
 10
330.80010314519126
 20
470.3314135740356
 10
330.6123724356958
 20
470.6123724356958
 10
330.3314135740356
 20
470.80010314519126
  0
LWPOLYLINE
  5
3F
330
17
100
AcDbEntity
  8
0
100
AcDbPolyline
 90
19
 70
0
 10
330.3314135740356
 20
570.8001031451913
 10
330.0
 20
570.8660254037844
 10
210.0
 20
570.8660254037844
 10
209.6685864259644
 20
570.8001031451913
 10
209.3876275643042
 20
570.6123724356958
 10
209.19989685480874
 20
570.3314135740355
 10
209.13397459621555
 20
570.0
 10
209.19989685480874
 20
569.6685864259645
 10
209.3876275643042
 20
569.3876275643042
 10
209.6685864259644
 20
569.1998968548087
 10
210.0
 20
569.1339745962156
 10
330.0
 20
569.1339745962156
 10
330.3314135740356
 20
569.1998968548087
 10
330.6123724356958
 20
569.3876275643042
 10
330.80010314519126
 20
569.6685864259645
 10
330.8660254037844
 20
570.0
 10
330.80010314519126
 20
570.3314135740355
 10
330.6123724356958
 20
570.6123724356958
 10
330.3314135740356
 20
570.8001031451913
  0
LWPOLYLINE
  5
40
330
17
100
AcDbEntity
  8
0
100
AcDbPolyline
 90
19
 70
0
 10
330.3314135740356
 20
630.8001031451913
 10
330.0
 20
630.8660254037844
 10
210.0
 20
630.8660254037844
 10
209.6685864259644
 20
630.8001031451913
 10
209.3876275643042
 20
630.6123724356958
 10
209.19989685480874
 20
630.3314135740355
 10
209.13397459621555
 20
630.0
 10
209.19989685480874
 20
629.6685864259645
 10
209.3876275643042
 20
629.3876275643042
 10
209.6685864259644
 20
629.1998968548087
 10
210.0
 20
629.1339745962156
 10
330.0
 20
629.1339745962156
 10
330.3314135740356
 20
629.1998968548087
 10
330.6123724356958
 20
629.3876275643042
 10
330.80010314519126
 20
629.6685864259645
 10
330.8660254037844
 20
630.0
 10
330.80010314519126
 20
630.3314135740355
 10
330.6123724356958
 20
630.6123724356958
 10
330.3314135740356
 20
630.8001031451913
  0
LWPOLYLINE
  5
41
330
17
100
AcDbEntity
  8
0
100
AcDbPolyline
 90
19
 70
0
 10
330.8660254037844
 20
730.0
 10
330.80010314519126
 20
730.3314135740355
 10
330.6123724356958
 20
730.6123724356958
 10
330.3314135740356
 20
730.8001031451913
 10
330.0
 20
730.8660254037844
 10
210.0
 20
730.8660254037844
 10
209.6685864259644
 20
730.8001031451913
 10
209.3876275643042
 20
730.6123724356958
 10
209.19989685480874
 20
730.3314135740355
 10
209.13397459621555
 20
730.0
 10
209.19989685480874
 20
729.6685864259645
 10
209.3876275643042
 20
729.3876275643042
 10
209.6685864259644
 20
729.1998968548087
 10
210.0
 20
729.1339745962156
 10
330.0
 20
729.1339745962156
 10
330.3314135740356
 20
729.1998968548087
 10
330.6123724356958
 20
729.3876275643042
 10
330.80010314519126
 20
729.6685864259645
 10
330.8660254037844
 20
730.0
  0
LWPOLYLINE
  5
42
330
17
100
AcDbEntity
  8
0
100
AcDbPolyline
 90
19
 70
0
 10
330.8660254037844
 20
770.0
 10
330.80010314519126
 20
770.3314135740355
 10
330.6123724356958
 20
770.6123724356958
 10
330.3314135740356
 20
770.8001031451913
 10
330.0
 20
770.8660254037844
 10
210.0
 20
770.8660254037844
 10
209.6685864259644
 20
770.8001031451913
 10
209.3876275643042
 20
770.6123724356958
 10
209.19989685480874
 20
770.3314135740355
 10
209.13397459621555
 20
770.0
 10
209.19989685480874
 20
769.6685864259645
 10
209.3876275643042
 20
769.3876275643042
 10
209.6685864259644
 20
769.1998968548087
 10
210.0
 20
769.1339745962156
 10
330.0
 20
769.1339745962156
 10
330.3314135740356
 20
769.1998968548087
 10
330.6123724356958
 20
769.3876275643042
 10
330.80010314519126
 20
769.6685864259645
 10
330.8660254037844
 20
770.0
  0
LWPOLYLINE
  5
43
330
17
100
AcDbEntity
  8
0
100
AcDbPolyline
 90
5
 70
0
 10
539.9083884469235
 20
-88.3078528040323
 10
363.2926828388588
 20
-88.3078528040323
 10
363.2926828388588
 20
818.3078528040322
 10
539.9083884469235
 20
818.3078528040322
 10
539.9083884469235
 20
-88.3078528040323
  0
LWPOLYLINE
  5
44
330
17
100
AcDbEntity
  8
0
100
AcDbPolyline
 90
17
 70
0
 10
376.5572442238039
 20
-73.69030116872179
 10
375.60053564289115
 20
-73.5
 10
374.6438270619784
 20
-73.69030116872179
 10
373.8327686899247
 20
-74.23223304703363
 10
373.2908368116129
 20
-75.04329141908728
 10
373.10053564289115
 20
-76.0
 10
373.2908368116129
 20
-76.95670858091272
 10
373.83276868992476
 20
-77.76776695296637
 10
374.6438270619784
 20
-78.30969883127821
 10
375.60053564289115
 20
-78.5
 10
376.5572442238039
 20
-78.30969883127821
 10
377.3683025958575
 20
-77.76776695296637
 10
377.91023447416933
 20
-76.95670858091272
 10
378.10053564289115
 20
-76.0
 10
377.91023447416933
 20
-75.04329141908727
 10
377.3683025958575
 20
-74.23223304703363
 10
376.5572442238039
 20
-73.69030116872179
  0
LWPOLYLINE
  5
45
330
17
100
AcDbEntity
  8
0
100
AcDbPolyline
 90
17
 70
0
 10
528.5572442238039
 20
-73.69030116872179
 10
527.6005356428911
 20
-73.5
 10
526.6438270619784
 20
-73.69030116872179
 10
525.8327686899247
 20
-74.23223304703363
 10
525.290836811613
 20
-75.04329141908728
 10
525.1005356428911
 20
-76.0
 10
525.290836811613
 20
-76.95670858091272
 10
525.8327686899247
 20
-77.76776695296637
 10
526.6438270619784
 20
-78.30969883127821
 10
527.6005356428911
 20
-78.5
 10
528.5572442238039
 20
-78.30969883127821
 10
529.3683025958576
 20
-77.76776695296637
 10
529.9102344741693
 20
-76.95670858091272
 10
530.1005356428911
 20
-76.0
 10
529.9102344741693
 20
-75.04329141908727
 10
529.3683025958576
 20
-74.23223304703363
 10
528.5572442238039
 20
-73.69030116872179
  0
LWPOLYLINE
  5
46
330
17
100
AcDbEntity
  8
0
100
AcDbPolyline
 90
17
 70
0
 10
376.5572442238039
 20
808.3096988312782
 10
375.60053564289115
 20
808.5
 10
374.6438270619784
 20
808.3096988312782
 10
373.8327686899247
 20
807.7677669529663
 10
373.2908368116129
 20
806.9567085809127
 10
373.10053564289115
 20
806.0
 10
373.2908368116129
 20
805.0432914190873
 10
373.83276868992476
 20
804.2322330470337
 10
374.6438270619784
 20
803.6903011687218
 10
375.60053564289115
 20
803.5
 10
376.5572442238039
 20
803.6903011687218
 10
377.3683025958575
 20
804.2322330470337
 10
377.91023447416933
 20
805.0432914190873
 10
378.10053564289115
 20
806.0
 10
377.91023447416933
 20
806.9567085809127
 10
377.3683025958575
 20
807.7677669529663
 10
376.5572442238039
 20
808.3096988312782
  0
LWPOLYLINE
  5
47
330
17
100
AcDbEntity
  8
0
100
AcDbPolyline
 90
17
 70
0
 10
528.5572442238039
 20
808.3096988312782
 10
527.6005356428911
 20
808.5
 10
526.6438270619784
 20
808.3096988312782
 10
525.8327686899247
 20
807.7677669529663
 10
525.290836811613
 20
806.9567085809127
 10
525.1005356428911
 20
806.0
 10
525.290836811613
 20
805.0432914190873
 10
525.8327686899247
 20
804.2322330470337
 10
526.6438270619784
 20
803.6903011687218
 10
527.6005356428911
 20
803.5
 10
528.5572442238039
 20
803.6903011687218
 10
529.3683025958576
 20
804.2322330470337
 10
529.9102344741693
 20
805.0432914190873
 10
530.1005356428911
 20
806.0
 10
529.9102344741693
 20
806.9567085809127
 10
529.3683025958576
 20
807.7677669529663
 10
528.5572442238039
 20
808.3096988312782
  0
LWPOLYLINE
  5
48
330
17
100
AcDbEntity
  8
0
100
AcDbPolyline
 90
11
 70
0
 10
386.7159653303911
 20
-75.90703125
 10
386.2425278303911
 20
-75.90703125
 10
387.2269028303911
 20
-78.5046875
 10
386.9744340803911
 20
-79.03078125
 10
386.53262158039115
 20
-79.1109375
 10
386.6764184553911
 20
-79.5474921875
 10
387.33724658039114
 20
-79.21453125
 10
388.6183090803911
 20
-75.90703125
 10
388.1784653303911
 20
-75.90703125
 10
387.4440903303911
 20
-78.009375
 10
386.7159653303911
 20
-75.90703125
  0
LWPOLYLINE
  5
49
330
17
100
AcDbEntity
  8
0
100
AcDbPolyline
 90
15
 70
0
 10
385.7596176741411
 20
-76.3196015625
 10
385.2583286116411
 20
-75.8984375
 10
384.2187973616411
 20
-75.940625
 10
383.6375473616411
 20
-76.646875
 10
384.8700473616411
 20
-76.2184375
 10
385.2887973616411
 20
-76.41134375
 10
385.3664536116411
 20
-76.8546875
 10
383.8758286116411
 20
-77.215625
 10
383.5985161116411
 20
-78.05778125
 10
384.1382348616411
 20
-78.52521875
 10
385.1164848616411
 20
-78.3853125
 10
385.4031723616411
 20
-78.18046875
 10
385.49067236164115
 20
-78.5
 10
385.9500473616411
 20
-78.5
 10
385.7596176741411
 20
-76.3196015625
  0
LWPOLYLINE
  5
4A
330
17
100
AcDbEntity
  8
0
100
AcDbPolyline
 90
14
 70
0
 10
390.38666845539115
 20
-78.134859375
 10
389.78510595539115
 20
-78.140234375
 10
389.3063325178911
 20
-77.39909375
 10
391.2331528303911
 20
-77.315625
 10
390.9058090803911
 20
-76.20234375
 10
390.1579653303911
 20
-75.8519765625
 10
389.2510825178911
 20
-76.1414296875
 10
388.84823876789113
 20
-77.09778125
 10
389.1784653303911
 20
-78.20859375
 10
390.16951220539113
 20
-78.5563984375
 10
391.0677231428911
 20
-78.0744140625
 10
391.22065283039115
 20
-77.72109375
 10
390.7667465803911
 20
-77.66484375
 10
390.38666845539115
 20
-78.134859375
  0
LWPOLYLINE
  5
4B
330
17
100
AcDbEntity
  8
0
100
AcDbPolyline
 90
10
 70
0
 10
392.3296957991411
 20
-76.5173125
 10
393.02485204914115
 20
-76.39765625
 10
393.1764145491411
 20
-75.98984375
 10
392.6058520491411
 20
-75.8625625
 10
392.2228207991411
 20
-76.19721875
 10
392.1631332991411
 20
-75.90703125
 10
391.7678207991411
 20
-75.90703125
 10
391.7678207991411
 20
-78.5
 10
392.2068832991411
 20
-78.5
 10
392.3296957991411
 20
-76.5173125
  0
LWPOLYLINE
  5
4C
330
17
100
AcDbEntity
  8
0
100
AcDbPolyline
 90
7
 70
0
 10
383.2028793928911
 20
-78.07734375
 10
381.44037939289115
 20
-78.07734375
 10
381.44037939289115
 20
-74.92109375
 10
380.9669418928911
 20
-74.92109375
 10
380.9669418928911
 20
-78.5
 10
383.2028793928911
 20
-78.5
 10
383.2028793928911
 20
-78.07734375
  0
LWPOLYLINE
  5
4D
330
17
100
AcDbEntity
  8
0
100
AcDbPolyline
 90
12
 70
0
 10
396.5524887678911
 20
-74.92109375
 10
396.1938950178911
 20
-74.92109375
 10
394.5603012678911
 20
-77.23984375
 10
394.5603012678911
 20
-77.64296875
 10
396.1134262678911
 20
-77.64296875
 10
396.1134262678911
 20
-78.5
 10
396.5524887678911
 20
-78.5
 10
396.5524887678911
 20
-77.64296875
 10
397.03608251789115
 20
-77.64296875
 10
397.03608251789115
 20
-77.23984375
 10
396.5524887678911
 20
-77.23984375
 10
396.5524887678911
 20
-74.92109375
  0
LWPOLYLINE
  5
4E
330
17
100
AcDbEntity
  8
0
100
AcDbPolyline
 90
19
 70
0
 10
511.94711918210027
 20
100.80010314519127
 10
511.6157056080647
 20
100.86602540378443
 10
391.6157056080647
 20
100.86602540378443
 10
391.2842920340291
 20
100.80010314519127
 10
391.0033331723689
 20
100.61237243569579
 10
390.8156024628734
 20
100.3314135740356
 10
390.74968020428025
 20
100.0
 10
390.8156024628734
 20
99.6685864259644
 10
391.0033331723689
 20
99.38762756430421
 10
391.2842920340291
 20
99.19989685480873
 10
391.6157056080647
 20
99.13397459621557
 10
511.6157056080647
 20
99.13397459621557
 10
511.94711918210027
 20
99.19989685480873
 10
512.2280780437604
 20
99.38762756430421
 10
512.415808753256
 20
99.6685864259644
 10
512.4817310118491
 20
100.0
 10
512.415808753256
 20
100.3314135740356
 10
512.2280780437604
 20
100.61237243569579
 10
511.94711918210027
 20
100.80010314519127
  0
LWPOLYLINE
  5
4F
330
17
100
AcDbEntity
  8
0
100
AcDbPolyline
 90
19
 70
0
 10
511.94711918210027
 20
150.80010314519126
 10
511.6157056080647
 20
150.86602540378445
 10
391.6157056080647
 20
150.86602540378445
 10
391.2842920340291
 20
150.80010314519126
 10
391.0033331723689
 20
150.6123724356958
 10
390.8156024628734
 20
150.3314135740356
 10
390.74968020428025
 20
150.0
 10
390.8156024628734
 20
149.6685864259644
 10
391.0033331723689
 20
149.3876275643042
 10
391.2842920340291
 20
149.19989685480874
 10
391.6157056080647
 20
149.13397459621555
 10
511.6157056080647
 20
149.13397459621555
 10
511.94711918210027
 20
149.19989685480874
 10
512.2280780437604
 20
149.3876275643042
 10
512.415808753256
 20
149.6685864259644
 10
512.4817310118491
 20
150.0
 10
512.415808753256
 20
150.3314135740356
 10
512.2280780437604
 20
150.6123724356958
 10
511.94711918210027
 20
150.80010314519126
  0
LWPOLYLINE
  5
50
330
17
100
AcDbEntity
  8
0
100
AcDbPolyline
 90
19
 70
0
 10
511.94711918210027
 20
250.80010314519126
 10
511.6157056080647
 20
250.86602540378445
 10
391.6157056080647
 20
250.86602540378445
 10
391.2842920340291
 20
250.80010314519126
 10
391.0033331723689
 20
250.6123724356958
 10
390.8156024628734
 20
250.3314135740356
 10
390.74968020428025
 20
250.0
 10
390.8156024628734
 20
249.6685864259644
 10
391.0033331723689
 20
249.3876275643042
 10
391.2842920340291
 20
249.19989685480874
 10
391.6157056080647
 20
249.13397459621555
 10
511.6157056080647
 20
249.13397459621555
 10
511.94711918210027
 20
249.19989685480874
 10
512.2280780437604
 20
249.3876275643042
 10
512.415808753256
 20
249.6685864259644
 10
512.4817310118491
 20
250.0
 10
512.415808753256
 20
250.3314135740356
 10
512.2280780437604
 20
250.6123724356958
 10
511.94711918210027
 20
250.80010314519126
  0
LWPOLYLINE
  5
51
330
17
100
AcDbEntity
  8
0
100
AcDbPolyline
 90
19
 70
0
 10
511.94711918210027
 20
370.80010314519126
 10
511.6157056080647
 20
370.8660254037844
 10
391.6157056080647
 20
370.8660254037844
 10
391.2842920340291
 20
370.80010314519126
 10
391.0033331723689
 20
370.6123724356958
 10
390.8156024628734
 20
370.3314135740356
 10
390.74968020428025
 20
370.0
 10
390.8156024628734
 20
369.6685864259644
 10
391.0033331723689
 20
369.3876275643042
 10
391.2842920340291
 20
369.19989685480874
 10
391.6157056080647
 20
369.1339745962156
 10
511.6157056080647
 20
369.1339745962156
 10
511.94711918210027
 20
369.19989685480874
 10
512.2280780437604
 20
369.3876275643042
 10
512.415808753256
 20
369.6685864259644
 10
512.4817310118491
 20
370.0
 10
512.415808753256
 20
370.3314135740356
 10
512.2280780437604
 20
370.6123724356958
 10
511.94711918210027
 20
370.80010314519126
  0
LWPOLYLINE
  5
52
330
17
100
AcDbEntity
  8
0
100
AcDbPolyline
 90
19
 70
0
 10
511.94711918210027
 20
470.80010314519126
 10
511.6157056080647
 20
470.8660254037844
 10
391.6157056080647
 20
470.8660254037844
 10
391.2842920340291
 20
470.80010314519126
 10
391.0033331723689
 20
470.6123724356958
 10
390.8156024628734
 20
470.3314135740356
 10
390.74968020428025
 20
470.0
 10
390.8156024628734
 20
469.6685864259644
 10
391.0033331723689
 20
469.3876275643042
 10
391.2842920340291
 20
469.19989685480874
 10
391.6157056080647
 20
469.1339745962156
 10
511.6157056080647
 20
469.1339745962156
 10
511.94711918210027
 20
469.19989685480874
 10
512.2280780437604
 20
469.3876275643042
 10
512.415808753256
 20
469.6685864259644
 10
512.4817310118491
 20
470.0
 10
512.415808753256
 20
470.3314135740356
 10
512.2280780437604
 20
470.6123724356958
 10
511.94711918210027
 20
470.80010314519126
  0
LWPOLYLINE
  5
53
330
17
100
AcDbEntity
  8
0
100
AcDbPolyline
 90
19
 70
0
 10
511.94711918210027
 20
570.8001031451913
 10
511.6157056080647
 20
570.8660254037844
 10
391.6157056080647
 20
570.8660254037844
 10
391.2842920340291
 20
570.8001031451913
 10
391.0033331723689
 20
570.6123724356958
 10
390.8156024628734
 20
570.3314135740355
 10
390.74968020428025
 20
570.0
 10
390.8156024628734
 20
569.6685864259645
 10
391.0033331723689
 20
569.3876275643042
 10
391.2842920340291
 20
569.1998968548087
 10
391.6157056080647
 20
569.1339745962156
 10
511.6157056080647
 20
569.1339745962156
 10
511.94711918210027
 20
569.1998968548087
 10
512.2280780437604
 20
569.3876275643042
 10
512.415808753256
 20
569.6685864259645
 10
512.4817310118491
 20
570.0
 10
512.415808753256
 20
570.3314135740355
 10
512.2280780437604
 20
570.6123724356958
 10
511.94711918210027
 20
570.8001031451913
  0
LWPOLYLINE
  5
54
330
17
100
AcDbEntity
  8
0
100
AcDbPolyline
 90
19
 70
0
 10
511.94711918210027
 20
630.8001031451913
 10
511.6157056080647
 20
630.8660254037844
 10
391.6157056080647
 20
630.8660254037844
 10
391.2842920340291
 20
630.8001031451913
 10
391.0033331723689
 20
630.6123724356958
 10
390.8156024628734
 20
630.3314135740355
 10
390.74968020428025
 20
630.0
 10
390.8156024628734
 20
629.6685864259645
 10
391.0033331723689
 20
629.3876275643042
 10
391.2842920340291
 20
629.1998968548087
 10
391.6157056080647
 20
629.1339745962156
 10
511.6157056080647
 20
629.1339745962156
 10
511.94711918210027
 20
629.1998968548087
 10
512.2280780437604
 20
629.3876275643042
 10
512.415808753256
 20
629.6685864259645
 10
512.4817310118491
 20
630.0
 10
512.415808753256
 20
630.3314135740355
 10
512.2280780437604
 20
630.6123724356958
 10
511.94711918210027
 20
630.8001031451913
  0
LWPOLYLINE
  5
55
330
17
100
AcDbEntity
  8
0
100
AcDbPolyline
 90
19
 70
0
 10
512.4817310118491
 20
730.0
 10
512.415808753256
 20
730.3314135740355
 10
512.2280780437604
 20
730.6123724356958
 10
511.94711918210027
 20
730.8001031451913
 10
511.6157056080647
 20
730.8660254037844
 10
391.6157056080647
 20
730.8660254037844
 10
391.2842920340291
 20
730.8001031451913
 10
391.0033331723689
 20
730.6123724356958
 10
390.8156024628734
 20
730.3314135740355
 10
390.74968020428025
 20
730.0
 10
390.8156024628734
 20
729.6685864259645
 10
391.0033331723689
 20
729.3876275643042
 10
391.2842920340291
 20
729.1998968548087
 10
391.6157056080647
 20
729.1339745962156
 10
511.6157056080647
 20
729.1339745962156
 10
511.94711918210027
 20
729.1998968548087
 10
512.2280780437604
 20
729.3876275643042
 10
512.415808753256
 20
729.6685864259645
 10
512.4817310118491
 20
730.0
  0
LWPOLYLINE
  5
56
330
17
100
AcDbEntity
  8
0
100
AcDbPolyline
 90
19
 70
0
 10
512.4817310118491
 20
770.0
 10
512.415808753256
 20
770.3314135740355
 10
512.2280780437604
 20
770.6123724356958
 10
511.94711918210027
 20
770.8001031451913
 10
511.6157056080647
 20
770.8660254037844
 10
391.6157056080647
 20
770.8660254037844
 10
391.2842920340291
 20
770.8001031451913
 10
391.0033331723689
 20
770.6123724356958
 10
390.8156024628734
 20
770.3314135740355
 10
390.74968020428025
 20
770.0
 10
390.8156024628734
 20
769.6685864259645
 10
391.0033331723689
 20
769.3876275643042
 10
391.2842920340291
 20
769.1998968548087
 10
391.6157056080647
 20
769.1339745962156
 10
511.6157056080647
 20
769.1339745962156
 10
511.94711918210027
 20
769.1998968548087
 10
512.2280780437604
 20
769.3876275643042
 10
512.415808753256
 20
769.6685864259645
 10
512.4817310118491
 20
770.0
  0
ENDSEC
  0
SECTION
  2
OBJECTS
  0
DICTIONARY
  5
A
330
0
100
AcDbDictionary
280
0
281
1
  3
ACAD_COLOR
350
B
  3
ACAD_GROUP
350
C
  3
ACAD_LAYOUT
350
D
  3
ACAD_MATERIAL
350
E
  3
ACAD_MLEADERSTYLE
350
F
  3
ACAD_MLINESTYLE
350
10
  3
ACAD_PLOTSETTINGS
350
11
  3
ACAD_PLOTSTYLENAME
350
12
  3
ACAD_SCALELIST
350
14
  3
ACAD_TABLESTYLE
350
15
  3
ACAD_VISUALSTYLE
350
16
  3
EZDXF_META
350
2D
  0
DICTIONARY
  5
B
330
A
100
AcDbDictionary
280
0
281
1
  0
DICTIONARY
  5
C
330
A
100
AcDbDictionary
280
0
281
1
  0
DICTIONARY
  5
D
330
A
100
AcDbDictionary
280
0
281
1
  3
Model
350
1A
  3
Layout1
350
1E
  0
DICTIONARY
  5
E
330
A
100
AcDbDictionary
280
0
281
1
  3
ByBlock
350
1F
  3
ByLayer
350
20
  3
Global
350
21
  0
DICTIONARY
  5
F
330
A
100
AcDbDictionary
280
0
281
1
  3
Standard
350
2C
  0
DICTIONARY
  5
10
330
A
100
AcDbDictionary
280
0
281
1
  3
Standard
350
22
  0
DICTIONARY
  5
11
330
A
100
AcDbDictionary
280
0
281
1
  0
ACDBDICTIONARYWDFLT
  5
12
330
A
100
AcDbDictionary
280
0
281
1
  3
Normal
350
13
100
AcDbDictionaryWithDefault
340
13
  0
ACDBPLACEHOLDER
  5
13
330
12
  0
DICTIONARY
  5
14
330
A
100
AcDbDictionary
280
0
281
1
  0
DICTIONARY
  5
15
330
A
100
AcDbDictionary
280
0
281
1
  0
DICTIONARY
  5
16
330
A
100
AcDbDictionary
280
0
281
1
  0
LAYOUT
  5
1A
330
D
100
AcDbPlotSettings
  1

  4
A3
  6

 40
7.5
 41
20.0
 42
7.5
 43
20.0
 44
420.0
 45
297.0
 46
0.0
 47
0.0
 48
0.0
 49
0.0
140
0.0
141
0.0
142
1.0
143
1.0
 70
1024
 72
1
 73
0
 74
5
  7

 75
16
 76
0
 77
2
 78
300
147
1.0
148
0.0
149
0.0
100
AcDbLayout
  1
Model
 70
1
 71
0
 10
0.0
 20
0.0
 11
420.0
 21
297.0
 12
0.0
 22
0.0
 32
0.0
 14
1e+20
 24
1e+20
 34
1e+20
 15
-1e+20
 25
-1e+20
 35
-1e+20
146
0.0
 13
0.0
 23
0.0
 33
0.0
 16
1.0
 26
0.0
 36
0.0
 17
0.0
 27
1.0
 37
0.0
 76
1
330
17
  0
LAYOUT
  5
1E
330
D
100
AcDbPlotSettings
  1

  4
A3
  6

 40
7.5
 41
20.0
 42
7.5
 43
20.0
 44
420.0
 45
297.0
 46
0.0
 47
0.0
 48
0.0
 49
0.0
140
0.0
141
0.0
142
1.0
143
1.0
 70
0
 72
1
 73
0
 74
5
  7

 75
16
 76
0
 77
2
 78
300
147
1.0
148
0.0
149
0.0
100
AcDbLayout
  1
Layout1
 70
1
 71
1
 10
0.0
 20
0.0
 11
420.0
 21
297.0
 12
0.0
 22
0.0
 32
0.0
 14
1e+20
 24
1e+20
 34
1e+20
 15
-1e+20
 25
-1e+20
 35
-1e+20
146
0.0
 13
0.0
 23
0.0
 33
0.0
 16
1.0
 26
0.0
 36
0.0
 17
0.0
 27
1.0
 37
0.0
 76
1
330
1B
  0
MATERIAL
  5
1F
102
{ACAD_REACTORS
330
E
102
}
330
E
100
AcDbMaterial
  1
ByBlock
  2

 70
0
 40
1.0
 71
1
 41
1.0
 91
-1023410177
 42
1.0
 72
1
  3

 73
1
 74
1
 75
1
 44
0.5
 73
0
 45
1.0
 46
1.0
 77
1
  4

 78
1
 79
1
170
1
 48
1.0
171
1
  6

172
1
173
1
174
1
140
1.0
141
1.0
175
1
  7

176
1
177
1
178
1
143
1.0
179
1
  8

270
1
271
1
272
1
145
1.0
146
1.0
273
1
  9

274
1
275
1
276
1
 42
1.0
 72
1
  3

 73
1
 74
1
 75
1
 94
63
  0
MATERIAL
  5
20
102
{ACAD_REACTORS
330
E
102
}
330
E
100
AcDbMaterial
  1
ByLayer
  2

 70
0
 40
1.0
 71
1
 41
1.0
 91
-1023410177
 42
1.0
 72
1
  3

 73
1
 74
1
 75
1
 44
0.5
 73
0
 45
1.0
 46
1.0
 77
1
  4

 78
1
 79
1
170
1
 48
1.0
171
1
  6

172
1
173
1
174
1
140
1.0
141
1.0
175
1
  7

176
1
177
1
178
1
143
1.0
179
1
  8

270
1
271
1
272
1
145
1.0
146
1.0
273
1
  9

274
1
275
1
276
1
 42
1.0
 72
1
  3

 73
1
 74
1
 75
1
 94
63
  0
MATERIAL
  5
21
102
{ACAD_REACTORS
330
E
102
}
330
E
100
AcDbMaterial
  1
Global
  2

 70
0
 40
1.0
 71
1
 41
1.0
 91
-1023410177
 42
1.0
 72
1
  3

 73
1
 74
1
 75
1
 44
0.5
 73
0
 45
1.0
 46
1.0
 77
1
  4

 78
1
 79
1
170
1
 48
1.0
171
1
  6

172
1
173
1
174
1
140
1.0
141
1.0
175
1
  7

176
1
177
1
178
1
143
1.0
179
1
  8

270
1
271
1
272
1
145
1.0
146
1.0
273
1
  9

274
1
275
1
276
1
 42
1.0
 72
1
  3

 73
1
 74
1
 75
1
 94
63
  0
MLINESTYLE
  5
22
102
{ACAD_REACTORS
330
10
102
}
330
10
100
AcDbMlineStyle
  2
Standard
 70
0
  3

 62
256
 51
90.0
 52
90.0
 71
2
 49
0.5
 62
256
  6
BYLAYER
 49
-0.5
 62
256
  6
BYLAYER
  0
MLEADERSTYLE
  5
2C
102
{ACAD_REACTORS
330
F
102
}
330
F
100
AcDbMLeaderStyle
179
2
170
2
171
1
172
0
 90
2
 40
0.0
 41
0.0
173
1
 91
-1056964608
 92
-2
290
1
 42
2.0
291
1
 43
8.0
  3
Standard
 44
4.0
300

342
29
174
1
175
1
176
0
178
1
 93
-1056964608
 45
4.0
292
0
297
0
 46
4.0
 94
-1056964608
 47
1.0
 49
1.0
140
1.0
294
1
141
0.0
177
0
142
1.0
295
0
296
0
143
3.75
271
0
272
9
273
9
  0
DICTIONARY
  5
2D
330
A
100
AcDbDictionary
281
1
  3
CREATED_BY_EZDXF
350
2E
  3
WRITTEN_BY_EZDXF
350
59
  0
DICTIONARYVAR
  5
2E
330
2D
100
DictionaryVariables
280
0
  1
1.3.4 @ 2024-12-03T20:10:28.111884+00:00
  0
DICTIONARYVAR
  5
59
330
2D
100
DictionaryVariables
280
0
  1
1.3.4 @ 2024-12-03T20:10:28.135751+00:00
  0
ENDSEC
  0
EOF
